HIERARCHY
ROOT Hips
{
  OFFSET -331.093 83.8371 -317.828
  CHANNELS 6 Xposition Yposition Zposition Zrotation Xrotation Yrotation
  JOINT LeftUpLeg
  {
    OFFSET 8.64259 1.95398 -2.38835
    CHANNELS 3 Zrotation Xrotation Yrotation
    JOINT LeftLeg
    {
      OFFSET 43.7702 0 0
      CHANNELS 3 Zrotation Xrotation Yrotation
      JOINT LeftFoot
      {
        OFFSET 40.6238 0 0
        CHANNELS 3 Zrotation Xrotation Yrotation
        JOINT LeftToeBase
        {
          OFFSET 12.7242 0 0
          CHANNELS 3 Zrotation Xrotation Yrotation
          End Site
          {
            OFFSET 0 0 0
          }
        }
      }
    }
  }
  JOINT RightUpLeg
  {
    OFFSET -8.2249 1.95398 -2.59336
    CHANNELS 3 Zrotation Xrotation Yrotation
    JOINT RightLeg
    {
      OFFSET 43.5653 0 0
      CHANNELS 3 Zrotation Xrotation Yrotation
      JOINT RightFoot
      {
        OFFSET 40.6238 0 0
        CHANNELS 3 Zrotation Xrotation Yrotation
        JOINT RightToeBase
        {
          OFFSET 12.7242 0 0
          CHANNELS 3 Zrotation Xrotation Yrotation
          End Site
          {
            OFFSET 0 0 0
          }
        }
      }
    }
  }
  JOINT Spine
  {
    OFFSET 0.165834 0.87714 6.61349
    CHANNELS 3 Zrotation Xrotation Yrotation
    JOINT Spine1
    {
      OFFSET 7.38963 1.71661e-005 0
      CHANNELS 3 Zrotation Xrotation Yrotation
      JOINT Spine2
      {
        OFFSET 11.9445 1.14441e-005 0
        CHANNELS 3 Zrotation Xrotation Yrotation
        JOINT Spine3
        {
          OFFSET 14.7254 4.19617e-005 0
          CHANNELS 3 Zrotation Xrotation Yrotation
          JOINT Spine4
          {
            OFFSET 10.9679 0 0
            CHANNELS 3 Zrotation Xrotation Yrotation
            JOINT RightShoulder
            {
              OFFSET 2.46616 -1.6653 3.69651
              CHANNELS 3 Zrotation Xrotation Yrotation
              JOINT RightArm
              {
                OFFSET 13.0012 0 0
                CHANNELS 3 Zrotation Xrotation Yrotation
                JOINT RightForeArm
                {
                  OFFSET 28.7848 1.62311e-005 0
                  CHANNELS 3 Zrotation Xrotation Yrotation
                  JOINT RightHand
                  {
                    OFFSET 26.5688 1.62095e-005 0
                    CHANNELS 3 Zrotation Xrotation Yrotation
                    End Site
                    {
                      OFFSET 0 0 0
                    }
                  }
                }
              }
            }
            JOINT LeftShoulder
            {
              OFFSET 2.38034 -1.29275 -3.7523
              CHANNELS 3 Zrotation Xrotation Yrotation
              JOINT LeftArm
              {
                OFFSET 16.3182 6.07031e-005 0
                CHANNELS 3 Zrotation Xrotation Yrotation
                JOINT LeftForeArm
                {
                  OFFSET 27.0901 0 0
                  CHANNELS 3 Zrotation Xrotation Yrotation
                  JOINT LeftHand
                  {
                    OFFSET 24.5451 1.51738e-005 0
                    CHANNELS 3 Zrotation Xrotation Yrotation
                    End Site
                    {
                      OFFSET 0 0 0
                    }
                  }
                }
              }
            }
            JOINT Neck
            {
              OFFSET 5.0226 -0.0266342 0
              CHANNELS 3 Zrotation Xrotation Yrotation
              JOINT Head
              {
                OFFSET 6.69364 2.86102e-005 0
                CHANNELS 3 Zrotation Xrotation Yrotation
                End Site
                {
                  OFFSET 0 0 0
                }
              }
            }
          }
        }
      }
    }
  }
}
MOTION
Frames:	6
Frame Time:	0.0416667
48.7053 87.3311 -108.937 -23.5854 -80.0205 -22.1169 -170.554 16.804 90.959 -73.2754 8.84001 1.08725 58.2239 -0.106695 3.5437 38.4009 14.0266 16.9981 176.025 47.9145 97.4266 -58.0353 11.6819 -0.589432 79.5364 -7.71268 -3.81046 43.118 -2.54528 -9.22889 -0.452535 8.33698 -90.9956 10.185 -1.35599 -1.86121 -1.48653 -1.43657 -1.79974 -24.0132 -0.734084 -2.18255 -4.00054 -0.73408 -2.18255 89.3257 -38.3572 -104.701 33.2502 -13.9475 12.9231 -2.58693 -3.43161 -48.3585 -25.4705 -1.97924 3.81672 -97.263 -46.1878 67.2066 -10.1936 11.2847 -14.9566 5.89807 -0.39204 -58.8976 17.7166 1.29685 3.45753 1.98446 2.16257 4.45232 11.1318 1.93317 4.49555 
48.2869 86.6134 -102.486 -36.8571 -76.472 -34.9469 -168.332 30.3802 88.9874 -80.3109 8.70519 0.736458 61.2115 2.4359 5.23436 44.7026 19.9721 15.7551 176.364 47.2019 98.951 -61.1953 11.6838 -0.930124 80.2528 -8.43474 -4.09959 42.7905 -2.15182 -7.75669 -0.038481 8.50293 -91.0199 9.85894 -0.539187 -1.97996 -1.81338 -0.625784 -1.95433 -24.3362 0.0806663 -2.05044 -4.32358 0.0806608 -2.05045 89.1142 -38.8409 -104.912 29.1795 -13.2925 4.08263 -3.43705 -3.53984 -47.3405 -25.5086 -1.94256 3.64661 -98.4865 -47.1239 65.7089 -12.5724 11.0681 -9.09749 5.60451 1.42555 -53.8879 19.5128 1.53751 4.02881 1.88873 2.40542 4.76103 13.1208 2.18125 4.387 
48.1667 85.3808 -96.1784 -43.3403 -72.7092 -40.8939 -166.539 44.6646 87.1443 -83.4768 6.57 0.69647 63.9108 4.00483 5.1771 45.2339 23.4796 20.7773 175.401 46.6422 100.279 -64.8778 11.5018 -0.836212 82.3957 -9.88016 -4.56867 43.9693 -1.64024 -5.35602 0.291495 8.66024 -91.0179 9.55007 0.12225 -2.02744 -2.12247 0.0329189 -2.03086 -24.6462 0.725804 -1.89707 -4.63353 0.72582 -1.89706 88.1685 -39.5082 -106.325 24.5989 -12.0551 -4.87392 -3.61057 -3.58102 -46.1162 -27.0268 -1.87769 2.86037 -99.725 -48.0909 64.2366 -15.4194 10.5771 -2.24626 5.72469 3.59825 -49.5359 19.568 1.64606 4.57129 2.77753 2.9307 5.72239 14.8384 2.42722 3.485 
48.1026 84.1253 -89.3083 -51.7594 -69.2972 -48.7829 -165.909 55.8381 87.2931 -81.2766 6.13489 0.240557 65.899 5.47415 6.01488 43.6013 23.3249 23.6176 175.432 43.67 100.52 -67.9264 9.33836 -1.28226 85.5717 -11.9316 -5.087 44.7281 -2.12442 -7.02003 0.663218 8.9259 -90.9028 9.02637 0.919883 -1.85143 -2.64563 0.837517 -1.89011 -25.176 1.43374 -1.48948 -5.16336 1.43373 -1.48949 87.3928 -38.9786 -107.843 21.9462 -10.3845 -12.9388 -3.54558 -2.40936 -47.6547 -33.115 -2.0814 1.98422 -99.7693 -48.2421 64.2282 -19.1799 10.8589 3.98389 5.03306 6.08107 -43.6577 19.204 1.37686 3.32087 5.04998 3.63326 6.44372 14.5205 2.71438 2.54909 
48.2164 82.6468 -81.513 -57.6723 -65.7187 -55.5341 -166.599 64.2059 88.7417 -74.5262 6.94836 -0.984592 66.5559 6.19647 7.55341 44.147 23.6868 23.1556 176.381 39.846 98.1387 -70.507 8.02055 -2.34795 89.1 -14.3712 -5.59563 48.3873 -2.59535 -7.4924 0.972804 9.10353 -90.5943 8.67602 1.6775 -1.2834 -2.99454 1.61937 -1.356 -25.5365 1.98563 -0.719808 -5.52384 1.98563 -0.719803 87.0381 -37.7989 -108.891 20.5484 -9.05675 -19.64 -4.61813 -2.37277 -53.5271 -38.1108 -2.35908 1.86236 -99.0769 -48.0754 65.1834 -24.5522 13.2814 12.3846 5.81056 9.95404 -41.2969 18.6599 1.38721 3.58223 8.13057 4.35257 6.84378 13.2455 3.08728 2.2376 
48.2482 81.1283 -72.779 -62.1621 -62.308 -60.8808 -169.6 69.9831 94.0765 -65.2205 4.43791 -2.42237 67.7648 5.12164 4.49449 41.3375 21.1965 24.5619 177.346 34.9739 94.6798 -72.3874 5.95705 -3.56176 90.3343 -15.5166 -5.87031 54.5755 -4.69809 -11.7745 1.33474 9.05927 -90.2163 8.76253 2.56698 -0.596803 -2.90608 2.53822 -0.709264 -25.4616 2.62757 0.202812 -5.44893 2.62758 0.202811 88.0984 -36.1143 -107.645 22.0089 -9.21881 -24.0772 -9.06728 -1.57374 -65.7394 -40.618 -2.09298 0.699026 -97.4178 -47.0078 67.2626 -33.2825 16.4108 24.3926 8.97563 14.5311 -44.3201 19.1122 1.55412 4.28006 10.3896 4.60078 5.4283 11.0394 3.62783 3.62737 
